<?xml version="1.0" encoding="UTF-8"?>
<svg id="Lager_1" data-name="Lager 1" xmlns="http://www.w3.org/2000/svg" viewBox="0 0 336.7 269.57">
  <defs>
    <style>
      .cls-1 {
        fill: #fa2a2a;
      }
    </style>
  </defs>
  <path class="cls-1" d="M169.74,134.44c18.78-6.65,31.13-24.03,30.73-42.6-.5-23.25-20.72-35.83-22.04-36.61,2.81-.93,7.09-1.99,12.33-1.89,11.85.23,20.17,6.21,23.06,8.53,13.21,10.62,14.41,26.38,14.57,29.07,3.33,19.51,6.65,39.02,9.98,58.54l10.01-58.54c0-20.76,16.84-37.6,37.6-37.6s37.6,16.84,37.6,37.6c0,5.29-1.6,10.95-1.6,10.95-.45,1.65-.95,3.19-1.47,4.59-.57,1.57-1.6,3.82-1.6,3.82-11.13,28.42-22.26,52.32-31.81,70.06-9.53,17.74-17.47,29.37-22.13,33.31-11.35,9.56-22.66,10.8-22.66,10.8-1.52.17-2.84.22-3.94.22-15.4-.05-29.99-10.65-36.88-26.77-.3-.6-.6-1.22-.9-1.82.39-1.91.77-4.5.77-7.59,0-1.08-.05-5.43-1.63-10.99-2.4-8.38-6.75-14.07-8.57-16.28-4.84-5.84-10.13-9.21-13.51-11.02-2.63-5.27-5.27-10.53-7.9-15.8Z"/>
  <path class="cls-1" d="M193.24,188.53c0,16.64-10.78,30.74-25.75,35.71-3.74,1.25-7.74,1.92-11.88,1.92H58.68c-20.78,0-37.63-16.84-37.63-37.63v-97.56c0-20.76,16.84-37.6,37.63-37.6l96.06.9c3.82,0,7.54.57,11,1.65,15.4,4.69,26.6,19.01,26.6,35.93,0,19.24-14.42,35.08-33.01,37.35-2.72-9.71-9.13-17.92-17.62-22.98-5.86-3.52-12.73-5.54-20.06-5.54s-13.52,1.88-13.45,2.37c.06.42,4.67-.65,10.82-.21,3.41.24,13.16,1.06,22.38,8.09,2.12,1.62,10.16,7.93,13.21,18.57,1.3,4.54,1.32,8.56,1.31,9.64-.04,4.98-1.17,8.65-1.67,10.24-3.18,10.11-10.4,16.54-13.21,18.81-2.25,1.81-11.21,8.85-23.33,9.17-5.29.14-9.46-1.05-9.51-.77-.06.34,6.12,2.37,13.45,2.37s14.2-2.02,20.06-5.54c8.28-4.97,14.57-12.9,17.42-22.31,19.11,1.75,34.11,17.84,34.11,37.43Z"/>
</svg>